<svg width="452" height="456" viewBox="0 0 452 456" fill="none" xmlns="http://www.w3.org/2000/svg">
<rect width="452" height="456" rx="60" transform="matrix(1 0 0 -1 0 456)" fill="#1E40AF"/>
<path d="M90.5869 32.2746C72.2225 35.0291 63.0403 39.5051 50.8739 51.6708C44.4464 58.0979 40.544 63.1478 38.0189 68.3125C30.5583 83.3474 30.7879 78.1827 31.1322 231.057L31.4766 369.585L34.1164 377.274C37.3302 386.915 46.5124 400.688 53.6286 406.885C59.7118 412.05 69.0087 417.215 78.7648 421.002L85.4219 423.527L221.662 423.871C373.168 424.216 366.971 424.445 383.154 416.526C393.828 411.246 407.487 398.048 412.767 387.948C420.342 373.372 419.998 381.291 419.998 228.188C419.998 93.4472 419.883 89.0859 417.702 80.4781C412.193 58.6718 396.009 42.1448 372.939 34.3404C366.971 32.2746 359.74 32.1598 230.041 32.045C154.862 31.9303 92.1937 32.045 90.5869 32.2746ZM373.054 56.3764C386.138 62.574 394.976 72.6738 398.649 85.6428C400.371 91.3813 400.485 106.301 400.256 229.68L399.912 367.289L396.009 375.323C389.237 388.981 376.267 399.196 361.806 402.294C358.133 403.098 310.615 403.442 221.318 403.213L86.4549 402.868L77.7318 398.507C63.6142 391.621 54.5468 379.57 51.6774 363.961C50.7591 359.255 50.4148 316.217 50.4148 226.81C50.4148 84.7247 50.3 87.9382 56.9571 76.3464C62.9255 66.0171 72.6816 57.9831 83.5854 54.4253C89.6686 52.4742 97.9326 52.3594 227.746 52.5889L365.478 52.8185L373.054 56.3764Z" fill="white"/>
<path d="M87.2079 83.1424C81.4598 85.4272 81 87.5978 81 114.33V139.349L84.3339 142.662C87.8976 146.203 90.6567 146.775 95.1402 144.718C99.7386 142.662 101.118 138.664 101.118 127.582C101.118 121.984 101.348 117.415 101.693 117.415C102.038 117.415 110.775 125.869 121.121 136.15L140.09 155L142.734 151.344C144.228 149.288 147.332 145.975 149.631 144.033L154 140.377L135.031 121.413L116.063 102.563H126.754C137.101 102.563 137.676 102.449 140.894 99.2504C143.194 96.9656 144.228 94.795 144.228 92.2817C144.228 89.7684 143.194 87.5978 140.894 85.313L137.561 82L113.534 82.1142C100.428 82.1142 88.4724 82.5712 87.2079 83.1424Z" fill="white"/>
<path d="M310.71 84.4512C306.42 88.7078 306.188 93.5395 310.014 98.0261C312.681 101.017 313.493 101.247 324.507 101.822L336.101 102.398L317.551 121.149L299 139.901L305.377 146.803C308.971 150.6 311.87 154.281 311.87 154.971C311.87 155.547 320.449 147.379 331 136.68L350.014 117.353L350.13 128.052C350.13 138.405 350.246 138.981 353.493 142.202C355.812 144.503 358.014 145.538 360.565 145.538C363.116 145.538 365.319 144.503 367.638 142.202L371 138.866V113.442C371 88.3626 371 88.1325 368.217 84.9114L365.435 81.6902L339.812 81.3451L314.188 81L310.71 84.4512Z" fill="white"/>
<path d="M222.182 84.2636C217.23 86.9067 217 88.2857 217 109.545V130H226.558H236L235.424 108.626C234.848 87.9409 234.733 87.2514 232.085 85.068C229.091 82.6548 225.636 82.3101 222.182 84.2636Z" fill="white"/>
<path d="M179.263 143.603C166.543 145.209 154.053 154.389 148.209 166.323L145 172.748V225.531V278.314L148.323 285.084C152.334 293.345 158.407 299.542 166.429 303.787L172.502 307H225.787H279.072L285.145 303.787C292.937 299.656 299.354 293.001 303.365 284.854L306.574 278.314L306.917 228.973C307.147 195.353 306.917 177.797 306.001 173.666C304.282 165.749 297.177 154.963 290.645 150.488C279.988 143.144 280.103 143.144 230.37 143.029C205.504 142.915 182.471 143.144 179.263 143.603ZM270.707 166.437C276.207 168.044 281.822 172.748 283.77 177.568C285.03 180.436 285.374 190.648 285.374 224.843C285.374 274.412 285.26 275.33 277.009 281.297L272.425 284.625H225.787C179.263 284.625 179.148 284.625 175.252 281.986C173.075 280.609 170.21 277.166 168.835 274.298C166.199 269.249 166.199 268.56 166.199 224.957C166.199 181.354 166.314 180.666 168.835 176.305C171.814 170.912 175.94 167.699 181.211 166.437C187.17 165.06 265.665 165.06 270.707 166.437Z" fill="white"/>
<path d="M216.705 185.98C216.01 187.585 215.547 195.035 215.547 202.6V216.239H201.659C188.349 216.239 187.539 216.354 184.877 219.105C181.289 222.543 181.057 228.618 184.182 232.4C186.265 234.922 187.423 235.151 200.964 235.724L215.547 236.297L215.895 250.739C216.01 260.94 216.589 265.754 217.746 267.015C219.598 269.307 231.635 269.766 233.834 267.588C234.76 266.671 235.223 261.284 235.223 250.968V235.724H248.88C265.2 235.724 267.283 235.266 269.366 231.025C271.912 226.326 271.449 222.199 268.209 219.105C265.547 216.354 264.852 216.239 250.269 216.239H235.223V200.995C235.223 190.679 234.76 185.292 233.834 184.375C233.024 183.573 229.32 183 225.154 183C218.325 183 217.746 183.229 216.705 185.98Z" fill="white"/>
<path d="M320 225.5V235H341.879C354.137 235 364.561 234.553 365.821 233.882C366.966 233.324 368.57 230.976 369.257 228.853C370.403 225.5 370.288 224.382 368.456 221.365C367.31 219.353 365.019 217.453 363.53 217.006C361.926 216.559 351.502 216.224 340.39 216.112L320 216V225.5Z" fill="white"/>
<path d="M85.2752 220.023C82.0765 224.093 82.305 228.977 85.618 232.93L88.3598 236.186L110.18 236.535L132 237V227V217H109.837H87.5601L85.2752 220.023Z" fill="white"/>
<path d="M121.556 315.951C111.011 326.402 102.205 334.901 101.857 334.901C101.51 334.901 101.51 331.456 101.625 327.206C102.205 317.788 100.467 311.701 96.4111 308.6C92.3556 305.384 88.8794 305.614 84.5921 309.174L81 312.161V339.381C81 369.816 81.2317 370.62 88.8794 372.803C95.7159 374.64 133.606 374.296 138.357 372.228C145.078 369.472 146.584 362.581 141.717 356.838L138.705 353.278H125.843H112.865L133.49 332.834C144.73 321.693 154 312.161 154 311.701C154 311.242 151.683 308.715 148.786 306.073C146.005 303.547 143.34 300.446 142.992 299.182C142.529 298.034 141.949 297 141.486 297C141.022 297 132.1 305.499 121.556 315.951Z" fill="white"/>
<path d="M304.615 305.158L298 312.315L318.31 332.877L338.736 353.552H326.086C314.944 353.552 313.087 353.779 310.882 355.824C307.517 359.005 306.588 363.094 308.445 367.298C310.882 373.205 314.712 374 339.084 374C361.948 374 367.286 373.091 369.723 368.547C370.536 367.07 371 356.619 371 339.92V313.564L367.634 310.27C363.921 306.748 361.251 306.18 356.609 308.225C352.083 310.27 350.11 315.723 350.11 326.515V335.944L330.728 316.859C320.051 306.408 311.347 297.888 311.347 298.001C311.231 298.001 308.213 301.296 304.615 305.158Z" fill="white"/>
<path d="M217.086 321.353C216.971 321.7 216.971 331.325 217.086 342.805C217.086 361.126 217.43 364.025 219.264 366.576C222.13 370.635 229.466 371.214 232.676 367.62C234.624 365.416 234.968 362.865 235.427 343.385L236 321.469L226.486 321.121C221.327 320.889 217.086 321.005 217.086 321.353Z" fill="white"/>
</svg>
