<svg xmlns="http://www.w3.org/2000/svg" xmlns:xlink="http://www.w3.org/1999/xlink" width="0" height="0" style="display:none;"><symbol viewBox="0 0 33 32" id="ue908-addthis">
<path d="M24.7 17.9947H18.6987V23.9733H14.6987V17.9947H8.70001V14.008H14.7V8.028H18.7014V14.008H24.7V17.9947ZM28.7 0.054657H4.70001C2.49736 0.0573139 0.710668 1.83866 0.700012 4.04131V27.9613C0.710668 30.1613 2.49736 31.9427 4.70001 31.9453H28.7C30.9014 31.9427 32.688 30.1613 32.7 27.9613V4.04131C32.688 1.83866 30.9027 0.0586567 28.7 0.054657Z" fill="black"/>
</symbol><symbol viewBox="0 0 33 32" id="ue90f-adobedreamweaver">
<path d="M0.400024 0.644604V31.8446H32.4V0.644604H0.400024ZM1.73337 1.97795H31.0667V30.5113H1.73337V1.97795ZM4.56668 7.99126C4.56668 7.87926 4.58934 7.83526 4.72134 7.81392C5.22799 7.79126 6.68134 7.74726 8.18399 7.74726C12.6507 7.74726 14.872 10.6299 14.872 14.8539C14.872 20.7273 11.0187 22.5073 8.05199 22.5073C6.92934 22.5073 5.29999 22.4859 4.70534 22.4646C4.61868 22.4646 4.57468 22.3979 4.57468 22.2886L4.56668 7.99126ZM6.96668 20.3513C7.34002 20.3753 7.67068 20.3966 8.08934 20.3966C10.5533 20.3966 12.3787 18.6579 12.4013 14.9193C12.428 11.2659 10.5347 9.85926 8.18399 9.85926C7.72134 9.85926 7.34799 9.88592 6.97465 9.90992L6.96668 20.3513ZM23.884 22.4446C23.7294 22.4446 23.6867 22.3846 23.664 22.2539C23.004 18.5806 22.4547 15.9833 22.2107 14.1793H22.1893C21.904 15.8139 21.376 18.5219 20.496 22.2833C20.452 22.4166 20.408 22.4526 20.2986 22.4526H18.1426C17.988 22.4526 17.9453 22.4313 17.9026 22.2993L15.5466 11.7913C15.5253 11.7019 15.5706 11.6139 15.7026 11.6139H17.8587C17.9466 11.6139 18.0133 11.6446 18.0346 11.7339C18.8706 16.4619 19.2213 18.9126 19.3546 19.8806H19.4426C19.5973 18.7366 20.0586 16.3526 21.048 11.7766C21.092 11.6433 21.092 11.6113 21.224 11.6113H23.4907C23.6 11.6113 23.6213 11.6646 23.644 11.7753C24.4146 16.1086 24.92 18.8419 25.052 19.9433H25.1186C25.332 18.5353 25.6253 16.6366 26.564 11.7513C26.5866 11.6633 26.608 11.6099 26.7186 11.6099H28.7453C28.8333 11.6099 28.9 11.6539 28.856 11.7646L26.2386 22.2899C26.2186 22.4006 26.1986 22.4446 26.044 22.4446L23.884 22.4446Z" fill="black"/>
</symbol><symbol viewBox="0 0 33 32" id="ue910-adobeillustrator">
<path d="M0.5 0.644604V31.8446H32.5V0.644604H0.5ZM1.83334 1.97795H31.1667V30.5113H1.83334V1.97795ZM11.6 18.3113L10.544 22.3086C10.5213 22.4193 10.4773 22.4446 10.3467 22.4446H8.38931C8.25597 22.4446 8.23597 22.4006 8.25597 22.2473L12.0426 8.98726C12.1093 8.74726 12.152 8.5366 12.1733 7.8766C12.1733 7.7886 12.2173 7.74326 12.2839 7.74326H15.0786C15.1666 7.74326 15.2119 7.76726 15.2332 7.8766L19.4799 22.2686C19.5026 22.3793 19.4799 22.4446 19.3692 22.4446H17.1693C17.0586 22.4446 16.9932 22.4179 16.9719 22.3299L15.8719 18.3099L11.6 18.3113ZM15.3173 16.1446C14.944 14.6699 14.064 11.4406 13.7333 9.87795H13.7107C13.4253 11.4379 12.7213 14.0779 12.1707 16.1446H15.3173ZM21.3173 8.73395C21.3173 7.8766 21.9107 7.36995 22.6813 7.36995C23.4947 7.36995 24.0453 7.91929 24.0453 8.73395C24.0453 9.61395 23.472 10.0979 22.6587 10.0979C21.8587 10.0979 21.312 9.61395 21.3173 8.73395ZM21.4667 11.7659C21.4667 11.6593 21.5107 11.6193 21.6213 11.6193H23.7147C23.832 11.6193 23.8747 11.6633 23.8747 11.7739V22.3006C23.8747 22.4113 23.8533 22.4553 23.7213 22.4553H21.6547C21.5213 22.4553 21.4773 22.3886 21.4773 22.2819L21.4667 11.7659Z" fill="black"/>
</symbol><symbol viewBox="0 0 33 32" id="ue911-adobeindesign">
<path d="M0.600037 0.644604V31.8446H32.6V0.644604H0.600037ZM1.93338 1.97795H31.2667V30.5113H1.93338V1.97795ZM12.3 22.2686C12.3 22.4019 12.2774 22.4446 12.124 22.4446H10.076C9.94269 22.4446 9.90004 22.3779 9.90004 22.2686V7.95395C9.90004 7.8206 9.96669 7.77795 10.076 7.77795H12.1467C12.256 7.77795 12.3 7.82195 12.3 7.9326V22.2686ZM14.66 17.1059C14.66 13.9153 16.764 11.4299 20.1294 11.4299C20.4147 11.4299 20.5694 11.4299 20.8334 11.4499V7.91129C20.8334 7.82329 20.9 7.77795 20.9667 7.77795H23.1334C23.2454 7.77795 23.2667 7.82329 23.2667 7.88995V20.3633C23.2667 20.7366 23.2667 21.1966 23.3334 21.7019C23.3334 21.7899 23.3067 21.8126 23.2174 21.8566C22.0734 22.4073 20.8627 22.6499 19.7187 22.6499C16.7681 22.6499 14.6561 20.8233 14.6601 17.1059H14.66ZM20.8334 13.6073C20.636 13.5193 20.3707 13.4739 20.0414 13.4739C18.328 13.4739 17.1254 14.7939 17.1254 16.9939C17.1254 19.5033 18.3494 20.5139 19.8894 20.5139C20.2187 20.5139 20.572 20.4713 20.836 20.3606L20.8334 13.6073Z" fill="black"/>
</symbol><symbol viewBox="0 0 33 32" id="ue912-adobelightroomcc">
<path d="M27.0333 0.644632H6.36667C3.23332 0.644632 0.700012 3.17798 0.700012 6.31129V26.1779C0.700012 29.3113 3.23336 31.8446 6.36667 31.8446H27.0333C30.1667 31.8446 32.7 29.3113 32.7 26.1779V6.31129C32.7 3.17795 30.1666 0.644632 27.0333 0.644632ZM31.3533 25.658C31.3534 25.6647 31.3534 25.6727 31.3534 25.6806C31.3534 28.3472 29.1929 30.509 26.5269 30.5113H6.87332C4.20667 30.5113 2.03332 28.3379 2.03332 25.6579V6.83129C2.03332 4.15129 4.20667 1.97795 6.87332 1.97795H26.5133C29.1864 1.97795 31.3533 4.14488 31.3533 6.81795V25.658ZM9.56664 22.418C9.40664 22.418 9.36664 22.3513 9.36664 22.218V7.88463C9.36664 7.77798 9.40664 7.71129 9.52664 7.71129H11.6333C11.7399 7.71129 11.7666 7.75129 11.7666 7.87129V20.2179H17.26C17.3666 20.2179 17.4066 20.2579 17.38 20.3779L17.0466 22.2713C17.02 22.3779 16.9533 22.4313 16.8466 22.4313H9.56664V22.418ZM19.5666 13.778C19.5666 13.618 19.5666 13.2313 19.5 12.4846C19.5 12.378 19.5266 12.3513 19.6066 12.3113C20.42 11.9779 22.3533 11.3913 24.5133 11.3913C24.62 11.3913 24.6733 11.4179 24.6733 11.5246V13.4446C24.6733 13.5513 24.6333 13.578 24.5133 13.578C23.6733 13.538 22.4333 13.6446 21.9666 13.8446V22.258C21.9666 22.3646 21.9266 22.418 21.8066 22.418H19.7133C19.6066 22.418 19.5533 22.378 19.5533 22.258V13.778H19.5666Z" fill="black"/>
</symbol></svg>