<svg xmlns="http://www.w3.org/2000/svg" xmlns:xlink="http://www.w3.org/1999/xlink" width="0" height="0" style="display:none;"><symbol viewBox="0 0 33 31" id="uec9b-zend">
<path d="M32.2 0.128641L12.2134 26.462H27.5867C30.1346 26.462 32.2 24.3965 32.2 21.8486L32.2 0.128641ZM4.81201 4.54999C2.31336 4.54999 0.200012 6.37664 0.200012 8.97264V30.8833L20.284 4.54995L4.81201 4.54999Z" fill="black"/>
</symbol><symbol viewBox="0 0 33 25" id="uec9c-zendesk">
<path d="M15.08 24.6323H0.300018L15.08 6.78832V24.6323ZM32.3 24.6323H17.52C17.52 20.5483 20.8254 17.2417 24.9107 17.2417C28.9947 17.2417 32.3 20.551 32.3 24.6323ZM17.52 18.227V0.379013H32.3L17.52 18.227ZM15.08 0.379013C15.08 4.46036 11.772 7.77101 7.68936 7.77101C3.60936 7.77101 0.300018 4.46301 0.300018 0.381668H15.08V0.379013Z" fill="black"/>
</symbol><symbol viewBox="0 0 33 17" id="uec9d-zendframework">
<path d="M1.64268 0.828298V4.2083H9.17868L0.400024 16.1816H14.0254V12.803H7.11871L15.8561 0.82964L1.64268 0.828298ZM19.692 1.0443C15.4547 1.0443 15.4547 5.28164 15.4547 5.28164H28.1627C32.4 5.28164 32.4 1.0443 32.4 1.0443H19.692ZM19.684 6.46698C15.4534 6.46698 15.4547 10.6963 15.4547 10.6963L21.804 10.703C26.0414 10.703 26.04 6.46698 26.04 6.46698H19.684ZM19.684 11.8656C15.4534 11.8656 15.4547 16.1096 15.4547 16.1096L17.5667 16.1016C21.804 16.1016 21.804 11.8656 21.804 11.8656H19.684Z" fill="black"/>
</symbol><symbol viewBox="0 0 33 33" id="uec9e-zeromq">
<path d="M29.9507 7.83786L32.476 5.31252L27.6933 0.52986L25.168 3.0552C22.6693 1.44186 19.6947 0.505859 16.5 0.505859C7.664 0.505859 0.5 7.66986 0.5 16.5059C0.5 19.7005 1.436 22.6752 3.04934 25.1739L0.524 27.6992L5.30666 32.4819L7.832 29.9565C10.3307 31.5699 13.3053 32.5059 16.5 32.5059C25.336 32.5059 32.5 25.3419 32.5 16.5059C32.5 13.3112 31.564 10.3365 29.9507 7.83786ZM6.592 16.5059C6.592 11.0339 11.028 6.59786 16.5 6.59786C18 6.59786 19.4213 6.9312 20.6947 7.52851L7.52131 20.7019C6.92531 19.4272 6.59197 18.0059 6.59197 16.5059H6.592ZM16.5 26.4139C15 26.4139 13.5787 26.0805 12.3053 25.4832L25.4787 12.3099C26.0747 13.5845 26.4093 15.0059 26.4093 16.5045C26.408 21.9779 21.972 26.4139 16.5 26.4139Z" fill="black"/>
</symbol><symbol viewBox="0 0 25 33" id="uec9f-zerply">
<path d="M24.3054 25.5005C23.3094 26.4525 22.2227 26.8565 20.9147 26.8565C19.1547 26.8565 16.4854 26.0432 14.4534 24.6432C12.2814 23.1512 9.43337 21.6605 7.03737 21.6152C8.80137 19.2178 11.5574 16.7778 14.1334 13.8845C15.084 12.8445 20.7774 6.28452 21.7734 5.10317C22.4934 4.24317 22.8574 3.20452 22.8574 2.16317C22.8574 1.76317 22.8134 1.38317 22.7227 1.02317C20.0094 1.56317 17.9747 1.82452 14.7214 1.82452C11.152 1.84452 8.57872 1.40586 7.08137 0.505859C6.04137 1.8632 5.00137 3.66986 5.00137 4.66586C5.00137 5.92986 6.22537 6.96986 9.25337 6.96986C10.248 6.96986 11.8734 6.92452 14.1334 6.74452C9.47737 12.7445 4.86803 17.6245 2.11203 20.7045C1.16137 21.7459 0.617371 23.1445 0.617371 24.5459C0.617371 25.0859 0.717371 25.6259 0.857371 26.1259C1.71737 25.9872 2.57871 25.8872 3.47737 25.8872C5.33737 25.8872 7.19737 26.2859 8.91871 27.0059C12.3401 28.5245 15.5401 32.5059 19.1614 32.5059C22.1 32.5059 24.5814 30.1845 24.5814 27.1245C24.5814 26.5859 24.5 26.0245 24.3214 25.4859L24.3054 25.5005Z" fill="black"/>
</symbol><symbol viewBox="0 0 33 33" id="ueca0-zhihu">
<path d="M8.32801 0.505859C3.70136 0.505859 0.700012 3.50586 0.700012 8.1312V24.8792C0.700012 29.5072 3.70267 32.5059 8.32801 32.5059H25.0747C29.7013 32.5059 32.7 29.5059 32.7 24.8805V8.13251C32.7 3.50451 29.7 0.505859 25.0747 0.505859H8.32801ZM10.9467 5.9432C10.5853 6.91655 10.28 7.8552 10.04 8.75655H16.156C16.8827 8.74855 16.7494 10.3139 16.7494 10.3179H13.212C13.2123 10.3916 13.2124 10.4789 13.2124 10.5662C13.2124 12.26 13.1581 13.9411 13.051 15.6078L13.0627 15.3805H16.6787C17.196 15.4112 17.2027 17.0485 17.2027 17.0685H12.944C12.8646 18.0972 12.6714 19.0509 12.3755 19.9582L12.4 19.8712L13.4094 19.0659C14.012 19.6739 15.4254 21.3485 15.9507 21.9685C16.5814 22.8765 16.0347 24.7432 16.0347 24.7432L12.3094 20.2338C11.4387 23.5912 9.84939 25.0432 9.84939 25.0432C9.15204 25.6672 7.74273 26.1365 6.32939 25.7312C9.28673 23.4245 10.916 20.5085 11.2187 17.0685H6.68807C6.68807 17.0485 6.95073 15.4112 7.76273 15.3805H11.3761C11.4081 14.9539 11.4907 11.0419 11.4907 10.3179H9.49739C9.31604 10.8592 9.28673 10.9139 9.14004 11.3219C8.34804 12.7819 7.0027 12.8179 6.59739 12.8619C7.80539 10.4339 8.48539 8.06186 8.71873 7.4432C9.28539 5.94455 10.9467 5.9432 10.9467 5.9432H10.9467ZM18.1374 8.50586H26.64V23.6125H23.2094L20.2974 25.4432L19.7627 23.6125H18.1374V8.50586ZM19.888 10.1312V21.9445H20.7187L21.0693 23.1939L23.0093 21.9432H24.9507V10.1299L19.888 10.1312Z" fill="black"/>
</symbol><symbol viewBox="0 0 33 27" id="ueca1-zillow">
<path d="M23.9746 21.5807C14.068 22.1741 3.29464 25.7607 2.15864 26.2607L3.4773 22.5421C6.83864 20.9874 15.1773 17.9167 25.4586 17.1834C25.2586 17.9434 24.1773 20.7448 23.9586 21.5634L23.9746 21.5807ZM27.5066 11.5687C27.5066 11.5687 27.0226 12.5887 26.5613 13.9874C22.6226 14.2274 16.3813 15.5261 13.3413 16.6274C14.9226 15.1874 24.9226 5.1474 24.9226 5.1474C28.78 7.78605 32.8 11.0461 32.8 11.0461L27.5066 11.5727V11.5687ZM4.10664 12.0087C6.30264 11.0087 12.46 9.1474 18.3533 7.7674C18.3533 7.7674 7.02396 18.2274 3.87464 21.4674L6.47464 14.4274C4.4533 14.7274 3.56264 14.8474 0.799988 15.4274L4.10533 12.0261L4.10664 12.0087ZM18.24 0.766087C19.2186 1.24474 22.84 3.70609 24.132 4.61674C20.004 4.7154 11.952 6.4954 8.59599 7.61674C11.3493 5.52609 16.4666 1.57674 18.24 0.752743V0.766087Z" fill="black"/>
</symbol><symbol viewBox="0 0 24 33" id="ueca2-zingat">
<path d="M12.2613 0.513634C12.138 0.508884 11.9933 0.506165 11.8479 0.506165C10.8751 0.506165 9.93063 0.627541 9.02882 0.855946L9.10791 0.838976C6.48566 1.46691 4.26869 2.91607 2.68575 4.89457L2.66791 4.91763C1.30807 6.57666 0.411972 8.66338 0.20441 10.9489L0.201222 10.9923C0.173316 11.2473 0.15741 11.5429 0.15741 11.8424C0.15741 12.5673 0.250722 13.2705 0.426003 13.9405L0.413222 13.883C0.804378 15.2918 1.28303 16.5084 1.86982 17.6608L1.81722 17.547C2.93847 19.8089 4.04588 21.7016 5.26497 23.5129L5.14788 23.3283C7.46566 26.8347 9.68366 29.8263 12.0441 32.6963L11.8919 32.5056L11.9812 32.407C12.5892 31.6416 13.2119 30.887 13.7986 30.107C14.8506 28.7096 15.8812 27.2936 16.9186 25.883C17.1003 25.6571 17.2102 25.3667 17.2102 25.0507C17.2102 24.9888 17.206 24.9278 17.1978 24.868L17.1986 24.875C17.1025 24.2451 16.5646 23.768 15.9153 23.768C15.8052 23.768 15.6983 23.7818 15.5963 23.8075L15.6053 23.8056C15.1959 23.9083 14.9386 24.187 14.7053 24.5083C13.9759 25.5123 13.2453 26.5149 12.5093 27.5163C12.3133 27.7829 12.1079 28.0403 11.8586 28.2536C9.91907 25.7965 7.99269 23.0311 6.23163 20.1534L6.0186 19.779C5.00125 18.0723 4.0586 16.327 3.3426 14.4723C3.18932 14.1114 3.0371 13.6649 2.91441 13.2063L2.89725 13.131C2.75725 12.5444 2.76925 11.9417 2.8066 11.339C2.83394 10.545 2.992 9.79598 3.25982 9.10148L3.24391 9.14835C3.56925 8.34301 3.91991 7.55501 4.44391 6.86569C5.36138 5.63485 6.54832 4.65507 7.9211 4.00301L7.97722 3.97901C9.02788 3.49901 10.1052 3.15235 11.2706 3.15235C11.3804 3.15054 11.5101 3.14948 11.6401 3.14948C12.1428 3.14948 12.642 3.16504 13.1371 3.19569L13.0693 3.19232C13.5295 3.22344 13.9582 3.30269 14.368 3.42566L14.3266 3.41498C16.3079 4.01232 17.9826 5.08963 19.2546 6.74032C19.7475 7.39579 20.1637 8.14873 20.4674 8.95676L20.4879 9.01901C20.6175 9.33851 20.7437 9.73226 20.8429 10.1366L20.8559 10.199C20.9104 10.4589 20.9512 10.7684 20.9697 11.0839L20.9706 11.1017C21.0292 11.7603 21.0546 12.4217 20.9079 13.071C20.8026 13.503 20.6679 13.9257 20.5013 14.339C20.3239 14.8177 20.1266 15.2857 19.9186 15.751V13.563C19.9193 13.5486 19.9196 13.5318 19.9196 13.5149C19.9196 13.2494 19.8267 13.0056 19.6716 12.8143L19.6733 12.8164C19.5157 12.6428 19.3438 12.4877 19.1575 12.351L19.1479 12.3444C16.9879 10.7044 14.8306 9.06435 12.6706 7.42701C12.458 7.26551 12.189 7.16829 11.8972 7.16829C11.6008 7.16829 11.3278 7.26863 11.1103 7.43719L11.1133 7.43501C10.8306 7.64966 10.5506 7.86835 10.2693 8.08435L8.57194 9.38035V8.15901C8.5706 8.04166 8.5546 7.92566 8.52528 7.81101C8.51653 7.09457 7.93372 6.51716 7.21603 6.51716C6.49291 6.51716 5.90669 7.10338 5.90669 7.82651C5.90669 7.94423 5.92222 8.05832 5.95135 8.16685L5.94925 8.1577V11.2524C5.9496 11.2571 5.94982 11.2627 5.94982 11.2683C5.94982 11.3457 5.91078 11.414 5.85135 11.4545L5.85057 11.455C5.59191 11.6417 5.34522 11.8337 5.09991 12.0257L5.06657 12.0524C4.76947 12.2938 4.58119 12.6593 4.58119 13.0686C4.58119 13.3796 4.68978 13.6651 4.87116 13.8895L4.86922 13.887C5.32122 14.4497 6.14388 14.5404 6.70657 14.0897L11.8146 10.1897C11.8387 10.1674 11.871 10.1538 11.9066 10.1538C11.9461 10.1538 11.9816 10.1707 12.0065 10.1976L12.0066 10.1977L15.0306 12.5097C15.7239 13.039 16.4159 13.5763 17.1159 14.0963C17.2258 14.1667 17.2977 14.2882 17.2977 14.4264C17.2977 14.4393 17.297 14.452 17.2958 14.4646L17.2959 14.463V20.903C17.2959 20.9296 17.2999 20.955 17.3013 20.9803C17.3023 21.0392 17.3072 21.0959 17.3155 21.1514L17.3146 21.1443C17.3146 21.1447 17.3146 21.1452 17.3146 21.1457C17.3146 21.1461 17.3146 21.1466 17.3146 21.1471V21.147C17.3146 21.1564 17.3146 21.1644 17.3173 21.1737C17.3242 21.2143 17.3311 21.2468 17.3392 21.2787L17.3373 21.2697C17.3499 21.3214 17.3627 21.3632 17.3775 21.4041L17.3746 21.395C17.3922 21.4446 17.4089 21.4843 17.4273 21.5229L17.4239 21.515C17.6366 21.9666 18.0879 22.2736 18.6109 22.2736C19.157 22.2736 19.6248 21.939 19.8208 21.4637L19.8239 21.455L19.8639 21.3977C20.2826 20.6777 20.7106 19.963 21.1133 19.2283C21.9093 17.783 22.6226 16.3003 23.1373 14.7283C23.4048 13.9996 23.5837 13.1567 23.6361 12.2797L23.6373 12.255C23.6405 12.1566 23.6424 12.041 23.6424 11.925C23.6424 10.8247 23.4758 9.76335 23.1664 8.76473L23.1866 8.84029C22.4878 6.48226 21.1124 4.50476 19.2873 3.07498L19.2626 3.05629C17.2146 1.43894 14.8693 0.606945 12.2613 0.513634ZM10.8039 14.119C10.0662 14.1381 9.4755 14.7407 9.4755 15.4812C9.4755 15.4931 9.47566 15.5049 9.47597 15.5167L9.47594 15.515V17.6683C9.49228 18.4097 10.0972 19.0045 10.841 19.0045C10.8481 19.0045 10.8553 19.0044 10.8623 19.0043H13.0079C13.7585 19.0036 14.3666 18.395 14.3666 17.6443C14.3666 17.6429 14.3666 17.6415 14.3666 17.6401V17.6403V15.483C14.3644 14.7334 13.7585 14.1262 13.0097 14.1216H11.9293V14.119H10.8039ZM10.8999 15.395H12.9533C13.0519 15.395 13.0866 15.435 13.0866 15.5323V16.5697L13.0906 16.5777C13.0906 16.9083 13.0786 17.2403 13.0906 17.5643C13.0906 17.6763 13.0559 17.7177 12.9413 17.7177H10.9026C10.7959 17.7177 10.7599 17.6817 10.7599 17.575V15.5404C10.7599 15.4377 10.7906 15.395 10.8999 15.395L10.8999 15.395Z" fill="black"/>
</symbol><symbol viewBox="0 0 32 8" id="ueca3-zoom">
<path d="M6.116 5.92394L5.756 5.90794H2.52L6.83334 1.59459L6.816 1.23459C6.8015 0.655093 6.3355 0.189093 5.75737 0.174624L5.756 0.174594L5.396 0.15725H0.00534058L0.0239968 0.517251C0.0693406 1.10125 0.494653 1.54391 1.08265 1.57725L1.44265 1.59459H4.68L0.363997 5.90794L0.382653 6.26659C0.402653 6.84394 0.865309 7.30659 1.44265 7.32794L1.80265 7.34528H7.19465L7.176 6.98528C7.128 6.39463 6.70934 5.96263 6.116 5.92394ZM10.432 0.15725H10.4267C8.44325 0.158782 6.836 1.76697 6.836 3.75059C6.836 5.73513 8.44478 7.34394 10.4293 7.34394C12.4139 7.34394 14.0227 5.73516 14.0227 3.75059C14.0227 1.767 12.4154 0.158782 10.4322 0.15725H10.432ZM11.9533 5.27594C11.5596 5.68925 11.005 5.94628 10.3903 5.94628C9.19887 5.94628 8.233 4.98041 8.233 3.78894C8.233 3.17466 8.48975 2.62031 8.90178 2.22741L8.90265 2.22659C9.28894 1.85825 9.81315 1.63159 10.3903 1.63159C11.5818 1.63159 12.5477 2.59747 12.5477 3.78894C12.5477 4.36578 12.3213 4.88975 11.9525 5.27681L11.9533 5.27594ZM29.116 0.158595C28.26 0.159251 27.4917 0.533751 26.9653 1.12759L26.9627 1.13059C26.4342 0.531687 25.6649 0.155938 24.8078 0.155938C24.8069 0.155938 24.8061 0.155938 24.8052 0.155938H24.8053C24.8041 0.155938 24.8027 0.155938 24.8013 0.155938C24.2015 0.155938 23.6448 0.340376 23.1849 0.655595L23.1947 0.649282C22.9147 0.338625 22.288 0.155938 21.9307 0.155938V7.34528L22.2907 7.32794C22.8907 7.28794 23.3267 6.86259 23.3507 6.26659L23.368 5.90659V3.39059L23.3867 3.03059C23.4 2.76125 23.44 2.52125 23.5627 2.31059C23.816 1.87869 24.278 1.59325 24.8067 1.59325C25.0718 1.59325 25.3202 1.66503 25.5334 1.79025L25.5267 1.78659C25.7447 1.9145 25.9214 2.09125 26.0457 2.30253L26.0493 2.30928C26.1733 2.52262 26.2093 2.76128 26.2253 3.02928L26.244 3.39063V5.90663L26.2613 6.26528C26.2973 6.85194 26.728 7.28928 27.3213 7.32663L27.6813 7.34397V3.39063L27.6973 3.03063C27.7107 2.76397 27.7507 2.51863 27.876 2.30663C28.2747 1.62128 29.1547 1.38663 29.84 1.78663C30.0582 1.91491 30.2349 2.09206 30.359 2.30384L30.3627 2.31063C30.4853 2.52397 30.5227 2.76797 30.5373 3.03063L30.556 3.39063V5.90663L30.5733 6.26528C30.6107 6.85594 31.04 7.29194 31.6347 7.32663L31.9947 7.34397V3.03063C31.9924 1.44397 30.7056 0.158626 29.1187 0.158626C29.1177 0.158626 29.1168 0.158626 29.1158 0.158626H29.116V0.158595ZM15.436 1.20925C14.7461 1.86553 14.317 2.79041 14.317 3.8155C14.317 5.80078 15.9264 7.41016 17.9117 7.41016C18.9358 7.41016 19.8599 6.98191 20.5146 6.29469L20.516 6.29322C21.1291 5.64972 21.5063 4.77666 21.5063 3.81547C21.5063 1.83019 19.897 0.220813 17.9117 0.220813C16.9515 0.220813 16.0792 0.597281 15.4345 1.21066L15.436 1.20922V1.20925ZM19.5013 5.27594C19.1091 5.67838 18.5617 5.92797 17.956 5.92797C16.7645 5.92797 15.7986 4.96209 15.7986 3.77063C15.7986 3.16494 16.0482 2.61753 16.4502 2.22569L16.4507 2.22525C16.839 1.84675 17.3702 1.61328 17.956 1.61328C19.1474 1.61328 20.1133 2.57916 20.1133 3.77063C20.1133 4.35638 19.8798 4.88763 19.5009 5.27638L19.5013 5.27591V5.27594Z" fill="black"/>
</symbol><symbol viewBox="0 0 33 29" id="ueca4-zorin">
<path d="M5.43335 24.0092L8.09335 28.6172H24.1067L26.7667 24.0092H5.43335ZM32.1 14.7505L29.416 19.4012H12.388L29.416 10.0998L32.1 14.7505ZM0.100006 14.7505L2.78401 10.0999H19.812L2.78401 19.4012L0.100006 14.7505ZM5.43335 5.49187L8.09335 0.883877H24.1067L26.7667 5.49187H5.43335Z" fill="black"/>
</symbol><symbol viewBox="0 0 33 33" id="ueca5-zulip--&#xeca6;&#xeca6;,zulip">
<path d="M32.2 16.7505C32.2 25.5871 25.0366 32.7505 16.2 32.7505C7.36345 32.7505 0.200012 25.5871 0.200012 16.7505C0.200012 7.91393 7.36345 0.750488 16.2 0.750488C25.0366 0.750488 32.2 7.91393 32.2 16.7505ZM21.4934 8.75049H9.56001L10.8934 11.4571H18.9734L9.56001 21.4571L10.8934 24.7371H22.84L21.5067 22.0438H13.4133L22.8267 12.0438L21.4934 8.75049Z" fill="black"/>
</symbol></svg>